<?xml version="1.0" encoding="UTF-8"?>
<!DOCTYPE svg PUBLIC "-//W3C//DTD SVG 1.1//EN" "http://www.w3.org/Graphics/SVG/1.1/DTD/svg11.dtd">
<!-- Creator: CorelDRAW 2020 (64-Bit) -->
<svg xmlns="http://www.w3.org/2000/svg" xml:space="preserve" width="152.028mm" height="171.321mm" version="1.1" style="shape-rendering:geometricPrecision; text-rendering:geometricPrecision; image-rendering:optimizeQuality; fill-rule:evenodd; clip-rule:evenodd"
viewBox="0 0 15203 17132"
 xmlns:xlink="http://www.w3.org/1999/xlink"
 xmlns:xodm="http://www.corel.com/coreldraw/odm/2003">
 <defs>
  <style type="text/css">
   <![CDATA[
    .str0 {stroke:#339966;stroke-width:85;stroke-miterlimit:22.9256}
    .str1 {stroke:#006633;stroke-width:17;stroke-miterlimit:22.9256}
    .fil0 {fill:#33CC99}
    .fil1 {fill:white}
   ]]>
  </style>
 </defs>
 <g id="Слой_x0020_1">
  <metadata id="CorelCorpID_0Corel-Layer"/>
  <g id="_2131072260864">
   <path class="fil0 str0" d="M7607 13750c799,0 1446,648 1446,1446 0,799 -648,1446 -1446,1446 -799,0 -1446,-648 -1446,-1446 0,-799 648,-1446 1446,-1446zm-5699 -3303c799,0 1446,648 1446,1446 0,799 -648,1446 -1446,1446 -799,0 -1446,-648 -1446,-1446 0,-799 648,-1446 1446,-1446zm0 -6699c799,0 1446,648 1446,1446 0,799 -648,1446 -1446,1446 -799,0 -1446,-648 -1446,-1446 0,-799 648,-1446 1446,-1446zm31 -398c615,0 1160,302 1494,766l1699 -1009c88,-52 202,-23 254,65 52,88 23,202 -65,254l-1703 1011c103,230 160,484 160,753 0,955 -727,1739 -1658,1831l0 3038c931,91 1658,876 1658,1831 0,265 -56,517 -157,744l2532 1471c335,-456 875,-751 1484,-751 1016,0 1840,824 1840,1840 0,1016 -824,1840 -1840,1840 -1016,0 -1840,-824 -1840,-1840 0,-273 60,-532 166,-765l-2535 -1459c-334,461 -877,761 -1490,761 -1016,0 -1840,-824 -1840,-1840 0,-952 724,-1736 1651,-1830l0 -3039c-928,-94 -1651,-878 -1651,-1830 0,-1016 824,-1840 1840,-1840z"/>
   <path class="fil0 str0" d="M13263 13388c-799,0 -1446,-648 -1446,-1446 0,-799 648,-1446 1446,-1446 799,0 1446,648 1446,1446 0,799 -648,1446 -1446,1446zm0 -6699c-799,0 -1446,-648 -1446,-1446 0,-799 648,-1446 1446,-1446 799,0 1446,648 1446,1446 0,799 -648,1446 -1446,1446zm-5699 -3303c-799,0 -1446,-648 -1446,-1446 0,-799 648,-1446 1446,-1446 799,0 1446,648 1446,1446 0,799 -648,1446 -1446,1446zm5699 10395c-615,0 -1160,-302 -1494,-766l-1699 1009c-88,52 -202,23 -254,-65 -52,-88 -23,-202 65,-254l1703 -1011c-103,-230 -160,-484 -160,-753 0,-955 727,-1739 1658,-1831l0 -3038c-931,-91 -1658,-876 -1658,-1831 0,-265 56,-517 157,-744l-2532 -1471c-335,456 -875,751 -1484,751 -1016,0 -1840,-824 -1840,-1840 0,-1016 824,-1840 1840,-1840 1016,0 1840,824 1840,1840 0,273 -60,532 -166,765l2535 1459c334,-461 877,-761 1490,-761 1016,0 1840,824 1840,1840 0,952 -724,1736 -1651,1830l0 3039c928,94 1651,878 1651,1830 0,1016 -824,1840 -1840,1840z"/>
  </g>
  <path class="fil1 str1" d="M6502 14784l1523 0 0 1047 -556 0 0 155 155 0 0 50 -696 0 0 -50 141 0 0 -155 -568 0 0 -1047zm52 49l1418 0 0 916 -1418 0 0 -916zm1125 -236c25,0 45,20 45,45 0,25 -20,45 -45,45 -25,0 -45,-20 -45,-45 0,-25 20,-45 45,-45zm-210 -117c-7,11 -16,19 -35,19 -19,0 -41,-24 -41,-41 0,-17 4,-20 11,-28 32,-42 73,-76 120,-99 47,-23 99,-36 155,-36 55,0 108,13 154,36 47,23 88,57 120,98 7,7 11,11 11,28 0,17 -22,41 -41,41 -19,0 -27,-8 -35,-19 -24,-31 -56,-57 -91,-75 -35,-18 -75,-27 -118,-27 -43,0 -83,10 -118,28 -36,18 -68,44 -92,75zm107 101c-7,14 -18,24 -37,24 -19,0 -41,-25 -41,-41 0,-16 3,-17 7,-23 17,-30 42,-55 72,-72 30,-18 65,-28 102,-28 37,0 71,10 101,27 30,17 55,42 72,72 5,7 7,8 7,23 0,16 -21,41 -41,41 -19,0 -30,-9 -37,-23 -10,-17 -25,-32 -43,-42 -18,-10 -38,-16 -60,-16 -22,0 -43,6 -61,16 -18,10 -32,25 -43,43zm-809 769c7,10 23,32 44,54 20,22 45,45 61,55 16,9 22,5 29,-8 6,-13 12,-36 8,-60 -4,-25 -19,-51 -40,-72 -20,-21 -46,-36 -73,-52 -27,-16 -54,-31 -69,-40 -15,-9 -18,-10 -19,0 -1,10 1,32 2,61 2,29 4,66 13,96 9,30 25,52 42,70 17,18 35,30 51,35 16,4 30,1 38,-3 8,-3 10,-7 3,-16 -7,-9 -23,-24 -38,-39 -15,-15 -30,-32 -40,-46 -10,-14 -14,-26 -16,-34 -3,-8 -3,-11 4,-1zm102 -43c10,10 21,19 29,31 8,11 13,24 16,38 3,13 4,27 5,40 14,-12 30,-28 44,-44 24,-26 42,-52 51,-63 9,-11 8,-8 5,1 -3,9 -8,23 -19,40 -11,17 -28,35 -46,53 -18,18 -37,35 -45,46 -8,10 -5,14 4,18 9,4 26,8 44,3 19,-5 40,-20 60,-40 20,-20 38,-47 49,-81 11,-35 13,-78 15,-112 2,-34 4,-59 3,-71 -1,-12 -5,-10 -22,0 -18,10 -49,29 -80,47 -31,18 -61,36 -85,60 -10,11 -20,22 -27,35zm306 -183l125 0 0 66 -125 0 0 -66zm139 0l125 0 0 66 -125 0 0 -66zm136 0l125 0 0 66 -125 0 0 -66zm134 0l125 0 0 66 -125 0 0 -66zm137 0l125 0 0 66 -125 0 0 -66zm-545 102l125 0 0 66 -125 0 0 -66zm139 0l125 0 0 66 -125 0 0 -66zm136 0l125 0 0 66 -125 0 0 -66zm-275 105l125 0 0 66 -125 0 0 -66zm139 0l125 0 0 66 -125 0 0 -66zm136 0l125 0 0 66 -125 0 0 -66zm134 0l125 0 0 66 -125 0 0 -66zm137 0l125 0 0 66 -125 0 0 -66zm-545 102l125 0 0 66 -125 0 0 -66zm139 0l125 0 0 66 -125 0 0 -66zm136 0l125 0 0 66 -125 0 0 -66zm962 92c10,10 21,19 29,31 8,11 13,25 16,38 3,13 4,27 5,40 14,-12 30,-28 44,-44 24,-26 42,-52 51,-63 9,-11 8,-8 5,1 -3,9 -8,23 -19,40 -11,17 -28,35 -46,53 -18,18 -37,35 -45,46 -8,10 -5,14 4,18 9,4 26,8 44,3 19,-5 40,-20 60,-40 20,-20 38,-47 49,-81 11,-35 13,-78 15,-112 2,-34 4,-59 3,-71 -1,-12 -5,-10 -22,0 -18,10 -49,29 -80,47 -31,18 -61,36 -85,60 -10,11 -20,22 -27,35zm-102 43c7,10 23,32 44,54 20,22 45,45 61,55 16,9 22,5 29,-8 6,-13 12,-36 8,-60 -4,-25 -19,-51 -40,-72 -20,-21 -46,-36 -73,-52 -27,-16 -54,-31 -69,-40 -15,-9 -18,-10 -19,0 -1,10 1,32 2,61 2,29 4,66 13,96 9,30 25,52 42,70 17,18 35,30 51,35 16,4 30,1 38,-3 8,-3 10,-7 3,-16 -7,-9 -23,-24 -38,-39 -15,-15 -30,-32 -40,-46 -10,-14 -14,-26 -16,-34 -3,-8 -3,-11 4,-1zm-44 321l350 0c5,0 10,4 10,10l0 6c0,5 -4,10 -10,10l-350 0c-5,0 -10,-4 -10,-10l0 -6c0,-5 4,-10 10,-10zm126 -844l99 0c5,0 10,4 10,10l0 6c0,5 -4,10 -10,10l-99 0c-5,0 -10,-4 -10,-10l0 -6c0,-5 4,-10 10,-10zm-167 -20l432 0c40,0 72,32 72,72l0 795c0,40 -32,72 -72,72l-432 0c-40,0 -72,-32 -72,-72l0 -795c0,-40 32,-72 72,-72zm-15 66l462 0 0 761 -462 0 0 -761z"/>
  <path class="fil1 str1" d="M12259 11139l2035 0 0 1364 -743 0 0 202 208 0 0 66 -930 0 0 -66 189 0 0 -202 -759 0 0 -1364zm70 64l1895 0 0 1194 -1895 0 0 -1194zm86 105l56 0 0 889c3,0 6,0 9,1l294 -384c-3,-7 -5,-15 -5,-23 0,-31 25,-56 56,-56 31,0 56,25 56,56 0,7 -1,13 -3,19l147 161c4,-1 9,-2 14,-2 4,0 7,0 10,1l245 -305c-3,-7 -4,-14 -4,-22 0,-31 25,-56 56,-56 31,0 56,25 56,56 0,3 0,5 -1,7l172 124c7,-4 16,-6 25,-6 4,0 9,1 13,1l224 -257 40 35 -224 256c2,6 4,13 4,20 0,31 -25,56 -56,56 -31,0 -56,-25 -56,-56 0,-3 0,-5 1,-7l-172 -124c-7,4 -16,6 -25,6 -4,0 -7,0 -10,-1l-245 305c3,7 4,14 4,22 0,31 -25,56 -56,56 -31,0 -56,-25 -56,-56 0,-7 1,-13 3,-19l-147 -161c-4,1 -9,2 -14,2 -3,0 -6,0 -9,-1l-294 384c3,7 5,15 5,23l1645 0 0 56 -1701 0 -56 0 0 -56 0 -945z"/>
  <path class="fil1 str1" d="M14110 5311l312 0c41,0 76,-23 84,-56l-472 0c3,30 43,56 76,56zm-76 -116l472 0c-7,-32 -42,-56 -76,-56l-324 0c-33,0 -70,26 -72,56zm-988 116l164 0 0 -172 -164 0 0 172zm-120 -952l364 0c62,0 70,-112 -12,-112l-344 0c-82,0 -81,112 -8,112zm472 1672l0 132c0,30 24,60 52,60l132 0c63,0 52,-103 52,-136 0,-139 -23,-120 -180,-120 -17,0 -32,11 -40,20 -9,10 -16,25 -16,44zm68 -1356c27,50 35,-8 92,-8 53,0 74,46 95,81 40,67 193,294 201,331l180 0c-6,-21 -365,-403 -401,-439 -71,-70 -51,-87 -122,-16 -17,17 -34,30 -45,51zm-1244 404l180 0c7,-30 196,-337 233,-383 23,-28 67,-38 101,-19 14,8 17,18 34,18 17,0 22,-21 13,-33 -8,-11 -76,-78 -93,-87 -72,38 -468,504 -468,504zm1048 60l0 392c0,112 59,183 142,214 60,22 343,15 449,12 126,-4 218,-92 218,-211 0,-60 0,-120 0,-180 -35,-8 -38,-16 -52,-20 0,74 10,197 -9,255 -9,29 -34,60 -57,75 -28,19 -60,30 -106,30l-360 0c-51,0 -85,-14 -114,-38 -73,-57 -58,-155 -58,-246l0 -232 636 0c14,0 15,-21 32,-52 -240,0 -480,0 -720,0zm-980 408c0,64 47,100 112,100l360 0c124,0 112,-110 112,-188 0,-98 -8,-113 0,-208l-216 0 -179 269c-15,23 -17,31 -45,31 -11,0 -24,-17 -24,-28 0,-14 31,-58 41,-71 17,-22 30,-43 45,-67l45 -67c15,-23 30,-45 45,-67l-88 0c-4,13 -54,85 -66,102 -6,9 -11,15 -17,23 -7,11 -7,18 -20,25 -21,12 -46,-3 -46,-27 0,-20 70,-102 76,-124l-136 0 0 296zm1092 -296l0 284c0,70 42,112 112,112l360 0c37,0 60,-10 81,-27 20,-17 31,-44 31,-81l0 -288c-195,0 -390,0 -584,0zm-1152 300c0,89 75,156 164,156l368 0c72,0 138,-37 161,-103 20,-59 11,-332 11,-413l-704 0 0 360zm-52 -4c0,37 9,68 22,94 16,32 28,42 51,65 44,44 115,53 179,53 90,0 336,9 408,-12 73,-21 144,-103 144,-180l0 -428 -804 0 0 408zm632 -1240c0,62 48,106 104,113 46,5 112,0 160,0l0 340c0,61 -56,106 -112,116 -57,10 -110,5 -165,67 -30,34 -41,75 -47,121 -3,23 -17,16 -44,16 -77,-1 -155,0 -232,0 2,-20 169,-282 189,-315 44,-75 39,-9 111,-9 28,0 50,-20 62,-38 15,-22 15,-55 3,-80 -7,-14 -84,-90 -100,-104 -19,-17 -48,-20 -75,-13 -51,15 -547,580 -547,582l0 452c0,46 13,81 28,112 13,27 38,63 60,80 15,11 20,18 39,29 52,31 102,43 169,43 134,0 267,-4 400,-4 0,63 -5,129 23,185 38,78 115,127 213,127l288 0c0,60 -2,85 43,129 40,39 121,31 177,31 81,0 136,-51 136,-132 0,-71 13,-155 -34,-210 -44,-53 -147,-38 -210,-38 -35,0 -75,28 -90,50 -9,13 -19,35 -21,51 -13,78 67,59 -285,59 -98,0 -180,-62 -180,-164 0,-106 -14,-97 32,-120 14,-7 25,-15 36,-24 20,-15 43,-40 57,-63 34,-56 47,-117 47,-181l0 -128c0,-10 -9,-16 8,-16l156 0c0,82 -11,207 21,279 4,9 7,18 11,25 51,98 149,144 276,144l320 0c42,0 95,-6 125,-19 199,-85 175,-243 175,-429l288 0c142,0 194,-160 101,-253 -26,-26 -57,-39 -109,-39 -100,1 -200,0 -300,0 -105,-123 -493,-546 -520,-556 -39,-14 -66,-4 -93,23l-46 46c-23,24 -53,42 -53,83 0,47 39,80 84,80 94,0 26,-122 185,143 16,27 101,155 107,181l-972 0c0,-65 27,-103 71,-125 46,-23 113,-14 158,-42 40,-24 73,-62 89,-111 13,-41 7,-268 6,-342 0,-50 5,-40 112,-40 41,0 60,4 90,-10 67,-33 90,-138 25,-192 -15,-12 -46,-29 -71,-29l-364 0c-64,0 -116,55 -116,120z"/>
  <path class="fil1 str1" d="M1285 5044c-8,17 -19,33 -32,46 -30,30 -72,49 -118,49 -46,0 -88,-19 -118,-49 -30,-30 -49,-72 -49,-118l0 -40 -267 0c-24,0 -44,-20 -44,-44 0,-24 20,-44 44,-44l320 0c0,-18 1,-35 5,-50 5,-18 14,-32 24,-42 10,-10 22,-17 34,-22 10,-4 21,-6 31,-8 9,-1 18,-2 27,-2 10,0 19,1 28,2 11,2 22,5 32,11 10,6 19,13 27,22 7,9 13,19 17,30 4,10 6,20 7,30 1,8 1,16 1,25l0 3 310 0c24,0 44,20 44,44 0,24 -20,44 -44,44l-265 0 0 25 1219 0 0 -25 -265 0c-24,0 -44,-20 -44,-44 0,-24 20,-44 44,-44l310 0 0 -3c0,-9 0,-18 1,-25 1,-10 3,-20 7,-30 4,-11 10,-21 17,-30 7,-9 16,-17 27,-22 10,-6 21,-9 32,-11 9,-2 18,-2 28,-2 9,0 18,0 27,2 10,1 21,4 31,8 12,5 24,11 34,22 11,11 19,24 24,42 4,15 5,32 5,50l320 0c24,0 44,20 44,44 0,24 -20,44 -44,44l-267 0 0 40c0,46 -19,87 -49,118 -30,30 -72,49 -118,49 -46,0 -87,-19 -118,-49 -13,-13 -24,-29 -32,-46l-220 0c-1,18 -2,36 -6,53 -3,16 -9,30 -15,44 -7,13 -14,25 -22,36 -8,11 -18,23 -29,35 -10,10 -21,20 -31,28l0 0c-12,9 -25,17 -38,23 -14,6 -27,10 -42,14 -9,2 -19,4 -29,5l0 118c15,1 29,3 45,7 17,4 35,11 52,19 16,8 32,18 46,29 15,12 27,24 37,37 10,12 19,25 27,38 8,12 15,24 21,36 6,12 11,23 15,32 6,15 6,28 4,38 -5,22 -18,32 -35,38 -9,3 -15,3 -38,2 -12,0 -29,-1 -54,-1 -47,0 -180,0 -312,0 -132,0 -265,0 -312,0 -25,0 -42,1 -54,1 -23,0 -28,1 -38,-2 -17,-5 -30,-16 -35,-38 -2,-11 -2,-23 4,-38 3,-9 8,-20 15,-32 6,-12 14,-24 21,-36 8,-13 17,-25 27,-38 10,-13 23,-25 37,-37 14,-11 30,-21 46,-29 17,-8 34,-15 52,-19 16,-4 30,-6 45,-7l0 -118c-10,-1 -20,-3 -29,-5 -15,-3 -29,-8 -42,-14 -14,-6 -26,-13 -38,-23l0 0c-11,-8 -21,-18 -31,-28 -11,-11 -21,-23 -29,-35 -8,-11 -16,-23 -22,-36 -7,-14 -12,-28 -15,-44 -4,-17 -5,-34 -6,-53l-220 0zm-94 -16c14,-14 23,-34 23,-56l0 -40 -158 0 0 40c0,22 9,42 23,56 14,14 34,23 56,23 22,0 42,-9 56,-23zm-83 -183l61 0 0 -1c0,-6 0,-11 -1,-17 0,-4 -1,-7 -2,-9 -1,-2 -2,-3 -3,-5 -1,-1 -1,-2 -2,-2 -1,-1 -3,-1 -5,-1 -4,-1 -9,-1 -14,-1 -5,0 -11,0 -16,1 -4,1 -8,1 -11,3 -2,1 -3,1 -4,2 -1,1 -1,2 -2,4 -2,6 -2,15 -2,26zm803 199l-318 0c1,13 2,25 4,35 2,9 4,16 8,23 3,7 8,14 15,23 7,9 14,18 22,26 7,7 14,14 21,19l0 0c7,5 14,9 21,13 7,3 15,6 25,8 10,2 22,4 35,5 16,1 31,2 47,2 29,1 75,1 121,1 46,0 91,0 121,-1 16,0 31,-1 47,-2 13,-1 25,-3 35,-5 10,-2 18,-5 25,-8 7,-3 14,-7 21,-13l0 0c7,-5 14,-12 21,-19 8,-8 15,-17 22,-26 6,-8 11,-16 15,-23 3,-7 6,-14 8,-23 2,-10 3,-22 4,-35l-318 0zm0 241c-34,0 -69,0 -105,-1l0 113c27,0 66,0 105,0 39,0 78,0 105,0l0 -113c-36,1 -70,1 -105,1zm0 199c-39,0 -79,0 -137,0l-6 0c-31,0 -53,0 -74,5 -11,3 -23,7 -34,13 -11,5 -22,12 -30,19 -9,7 -16,15 -24,24 -8,9 -14,19 -21,29 -3,4 -5,8 -7,12l20 0c84,-1 198,-1 313,-1 114,0 229,0 313,1l20 0c-2,-4 -5,-8 -7,-12 -6,-10 -13,-20 -21,-29 -7,-9 -15,-17 -24,-24 -9,-7 -19,-13 -30,-19 -12,-6 -23,-10 -34,-13 -21,-5 -43,-5 -74,-5l-6 0c-58,0 -97,0 -137,0zm697 -512c0,22 9,42 23,56 14,14 34,23 56,23 22,0 42,-9 56,-23 14,-14 23,-34 23,-56l0 -40 -158 0 0 40zm45 -127l61 0c0,-11 -1,-20 -2,-26 -1,-2 -1,-3 -2,-4 -1,-1 -2,-1 -4,-2 -3,-1 -7,-2 -11,-3 -5,-1 -11,-1 -16,-1 -5,0 -9,0 -14,1 -2,0 -4,1 -5,1 -1,0 -1,1 -2,2 -1,1 -2,3 -3,5 -1,2 -1,5 -2,9 -1,6 -1,11 -1,17l0 1z"/>
  <path class="fil1 str1" d="M6700 2239c0,146 13,358 161,407 53,18 99,16 162,16l1128 0c137,0 199,-50 238,-154 48,-126 69,-534 -90,-626 -49,-29 -95,-33 -164,-33l-1159 0c-116,0 -177,30 -222,110 -37,65 -54,182 -54,280zm306 -318c-23,3 -41,2 -66,6 -53,9 -108,38 -137,82 -11,17 -17,25 -26,45 -54,118 -46,323 10,426 38,70 103,100 182,110 34,4 528,1 577,1 190,0 387,-1 569,0 203,1 256,-138 264,-314 4,-89 -13,-183 -46,-243 -34,-63 -92,-100 -182,-110 -41,-4 -231,-3 -286,-3 -73,0 -829,-3 -861,1zm-12 37c-58,8 -116,11 -161,67 -75,93 -77,274 -44,381 50,160 182,149 313,149l458 0c72,0 142,2 215,-1 151,-7 209,-86 226,-232 10,-87 1,-216 -51,-284 -19,-25 -33,-38 -63,-54 -53,-29 -132,-26 -204,-26l-461 0c-36,0 -207,-2 -228,1zm883 595c39,7 144,1 190,1 64,0 121,-3 163,-29 83,-50 110,-142 110,-271 0,-126 -30,-223 -111,-269 -75,-42 -244,-29 -352,-29 5,8 23,14 32,19 9,5 23,16 31,24 63,57 78,165 78,254 0,104 -18,222 -106,279 -11,7 -28,13 -35,20zm-479 -805c35,-14 35,-11 79,-11l203 0c19,0 28,6 40,10 -4,-170 -23,-403 -64,-563 -7,-28 -15,-45 -25,-67l-150 -1c-60,61 -75,522 -84,631zm-858 193l0 231c0,76 23,81 64,116l0 -98c0,-70 -7,-140 101,-142 1,-11 6,-26 9,-37 7,-20 8,-16 0,-36 -35,-89 -4,-179 44,-253 7,-11 27,-36 27,-48 -22,-2 -48,28 -75,49 -24,19 -47,38 -71,58 -53,43 -98,62 -98,160zm1878 107c37,3 98,-4 115,67 7,28 -1,151 3,170l1 5c2,9 21,-14 27,-21 33,-41 23,-85 23,-149l-1 -227c-4,-44 -25,-70 -50,-91 -32,-26 -153,-134 -176,-136 -4,34 110,147 71,290 -20,74 -29,23 -13,94zm-68 -267l42 -6c-9,-44 -91,-124 -24,-126 -4,-45 -73,-159 -105,-199 -84,-106 -230,-208 -353,-256 -64,-25 -183,-56 -251,-54 2,10 6,19 9,29 4,13 2,24 15,27 8,2 27,2 36,4 156,25 255,70 379,165 100,76 171,162 214,284 13,36 33,90 37,132zm-1576 -127c11,8 0,-7 26,13 2,31 -13,34 -21,53 7,6 18,8 29,9 17,-37 12,-75 82,-204 35,-63 80,-110 136,-153 53,-42 115,-74 183,-103 55,-24 105,-38 163,-52 19,-4 43,-7 61,-12 2,-10 4,-18 6,-28 2,-9 6,-18 8,-27 -38,-5 -192,42 -234,59 -208,82 -334,190 -419,392 -6,14 -13,44 -21,53zm1649 791c17,8 95,4 95,-74 0,-50 5,-241 -4,-263 -7,-18 -23,-31 -41,-39 -12,-5 -20,-5 -35,-5 -18,0 -17,0 -14,17 5,24 8,47 9,72 3,57 6,169 -2,227 -2,13 -10,60 -9,66zm-1045 -80l35 0 0 -160c0,-2 0,-10 0,-12l1 -5c2,-8 3,-5 23,-6l89 0c38,-1 74,6 67,50 -9,65 -157,15 -165,40 -2,6 0,23 1,29l91 2 25 61 90 1c-12,-21 -46,-44 -61,-65 9,-10 45,-13 56,-54 10,-37 -5,-69 -28,-83 -43,-28 -159,-18 -224,-17l0 219zm-11 -533l383 0c-1,-27 -6,-44 -20,-58 -17,-17 -27,-21 -59,-21l-227 0c-46,0 -79,30 -76,79zm-668 615l-13 -107c-6,-65 -2,-164 6,-227 1,-11 11,-44 5,-48 -14,-7 -39,7 -46,12 -31,21 -31,42 -31,88 0,37 -4,214 4,235 11,30 38,48 76,47zm546 -82l71 0c7,-9 39,-77 42,-86 2,-5 1,-133 1,-133 -7,-1 -6,1 -23,36 -19,41 -35,86 -55,126 -10,-7 -56,-69 -68,-84l-52 -65c-9,-12 -7,-14 -27,-14l110 219zm-538 -429c0,1 0,1 0,0zm-66 846l2 2c1,2 -1,-1 -2,-2z"/>
  <path class="fil1 str1" d="M2125 12366l-47 -1c1,23 -4,46 23,46 28,0 20,-24 24,-44zm-150 0l-47 -2c0,23 -4,46 23,46 29,0 20,-23 24,-44zm402 -280l17 0 3 0 27 -1c-4,-20 4,-43 -21,-45 -29,-2 -26,22 -26,46zm-375 -2l32 2 15 0c0,-24 4,-46 -23,-46 -30,0 -18,23 -24,44zm76 2l47 0c-4,-21 5,-43 -21,-45 -30,-2 -25,22 -26,45zm270 279l-46 0c0,23 -3,46 23,46 26,0 23,-23 23,-46zm-196 -279l12 0 35 0c-4,-21 4,-43 -21,-45 -29,-2 -25,22 -26,45zm421 279l-46 0c0,23 -4,46 23,45 27,0 22,-23 23,-45zm150 0l-46 0c0,23 -4,46 23,45 27,0 23,-22 23,-46zm-75 0l-46 0c0,23 -4,46 23,46 26,0 23,-23 23,-46zm29 -279l46 0c0,-23 4,-46 -23,-46 -27,0 -23,23 -23,46zm-150 0l46 0c0,-23 3,-46 -23,-46 -24,0 -23,24 -23,46zm-225 0l46 0c-1,-23 3,-46 -23,-46 -27,0 -23,22 -23,46zm150 0l46 0 0 -3c0,-23 3,-42 -23,-42 -26,0 -23,23 -23,46zm-225 0l47 0 -1 -12 0 -3c0,-20 -5,-35 -28,-31 -21,3 -18,24 -18,45zm-374 0l37 0 10 -1c-2,-22 2,-43 -22,-45 -29,-2 -26,22 -26,46zm421 279l-46 0c0,23 -4,46 23,46 28,0 22,-23 24,-46zm-225 0l-46 0c0,23 -3,46 23,46 26,0 23,-22 23,-46zm449 0l-46 0c-1,23 -3,46 23,46 26,0 23,-23 23,-46zm-598 3l-4 -2c-1,0 -2,-1 -2,-1 -1,0 -2,0 -3,0l-37 0c0,24 -4,46 23,46 23,0 27,-23 23,-42zm524 -3l-46 0c0,23 -3,46 23,46 26,0 23,-22 23,-46zm-495 -279l23 0 23 0c-1,-23 4,-46 -23,-46 -27,0 -23,23 -23,46zm-179 279l-46 0c0,24 -4,46 23,46 26,0 24,-23 23,-46zm852 -293l0 14 46 0c-1,-21 4,-41 -15,-45 -25,-6 -31,9 -31,30zm-403 293l-46 0c-1,23 -4,46 23,46 27,0 23,-23 23,-46zm-495 -279l47 0c-2,-23 4,-46 -24,-46 -27,0 -22,22 -23,46zm75 0l46 0c0,-23 3,-46 -24,-46 -26,0 -22,23 -22,46zm46 278l-46 1c1,23 -4,45 23,45 27,0 24,-22 23,-46zm927 -96l0 -93c-29,-5 -55,25 -53,54 2,36 54,63 54,39zm-1131 -659l129 0 -1 -40 -127 1 -1 39zm479 -43l-42 2c-4,12 -2,28 -2,41l43 1c5,10 2,29 3,42l40 0 1 -33c0,-1 -3,0 3,-9l38 -1 -1 -41 -41 -1 0 -45 -41 0 -1 44zm-1195 303l0 338c0,73 97,71 96,0l0 -338c0,-29 4,-78 -48,-78 -52,0 -48,51 -48,78zm1203 -414c-46,8 -74,23 -100,48 -12,11 -60,67 -60,90 0,27 73,126 163,133 154,11 206,-156 111,-238 -24,-20 -70,-39 -114,-32zm-459 1c-95,20 -132,104 -108,180 36,115 189,122 282,15 12,-14 21,-27 31,-44 7,-11 10,-12 4,-24 -4,-8 -9,-16 -15,-25 -30,-48 -105,-121 -195,-102zm-819 935l0 125c0,45 19,45 62,45l236 0c143,0 123,23 123,-175 0,-21 4,-61 -4,-77 -14,-25 -52,-18 -91,-18 -51,0 -284,-2 -299,1 -36,8 -26,61 -26,99zm-125 -818l0 144c0,55 37,45 87,45 36,0 345,4 361,-2 30,-11 22,-61 22,-106l0 -152c0,-89 6,-83 -109,-84l-310 0c-44,0 -50,11 -51,53 0,34 0,68 0,103zm948 629l0 94c0,49 7,40 98,40l991 0c24,0 30,-6 30,-28l0 -150c0,-49 -3,-43 -78,-42l-1006 0c-42,0 -34,10 -34,87zm250 -532c9,7 14,18 21,26 157,194 420,92 416,-106 -2,-113 -84,-191 -182,-205 -95,-14 -180,35 -233,103 -7,9 -13,21 -22,28 -13,-11 -36,-60 -97,-97 -40,-24 -96,-45 -160,-35 -251,38 -249,379 -6,414 167,24 247,-115 263,-127zm-999 -393c0,42 -7,80 16,101 11,10 31,15 49,8 41,-15 31,-67 31,-125l0 -53c0,-2 0,-6 0,-8 2,-12 7,-10 13,-11 4,0 12,0 17,0 254,3 520,-1 776,0l776 0c57,0 137,-2 191,1 5,54 2,201 2,270 0,59 7,60 37,89 48,47 36,23 36,138l0 868c0,21 -15,28 -37,51 -15,15 -39,9 -79,9l-1694 0c-15,0 -38,4 -47,-5 -10,-10 -15,-19 -36,-20 -62,-3 -62,89 -31,112 18,13 66,9 97,9l1796 0c33,0 50,-23 77,-51 57,-60 51,-35 51,-130l0 -959c0,-34 -19,-44 -47,-73 -7,-7 -25,-22 -27,-31l0 -318c0,-65 -52,-56 -112,-56l-1730 0c-25,0 -50,0 -75,0 -25,1 -41,12 -48,31 -6,16 -3,128 -3,153z"/>
  <path class="fil1 str1" d="M3956 6735l5008 0 0 3441 -1828 0 0 510 511 0 0 165 -2289 0 0 -165 465 0 0 -510 -1867 0 0 -3441zm172 161l4664 0 0 3012 -4664 0 0 -3012zm3699 -775c82,0 148,66 148,148 0,82 -66,148 -148,148 -82,0 -148,-66 -148,-148 0,-82 66,-148 148,-148zm-691 -385c-24,38 -53,63 -114,63 -61,0 -134,-80 -134,-134 0,-55 13,-67 35,-91 105,-137 240,-249 395,-326 153,-77 326,-120 509,-120 182,0 354,43 507,119 154,77 289,187 394,322 22,24 36,37 36,92 0,55 -73,134 -134,134 -61,0 -90,-25 -114,-63 -80,-102 -183,-186 -300,-245 -116,-58 -248,-90 -388,-90 -140,0 -272,33 -389,91 -119,59 -222,145 -302,248zm351 332c-21,46 -58,77 -122,77 -64,0 -134,-83 -134,-134 0,-51 9,-54 24,-76 57,-98 139,-181 238,-238 99,-58 213,-91 335,-91 121,0 235,33 333,90 98,57 180,138 238,236 15,22 24,25 24,76 0,51 -71,134 -134,134 -64,0 -99,-31 -121,-76 -34,-57 -83,-105 -141,-139 -58,-34 -126,-53 -198,-53 -73,0 -142,20 -200,54 -58,34 -106,82 -141,140zm-2661 2527c25,32 77,105 144,178 67,74 148,149 200,180 52,31 74,18 94,-26 21,-44 41,-118 26,-198 -15,-81 -64,-168 -131,-236 -67,-69 -153,-119 -240,-170 -87,-51 -176,-103 -226,-132 -50,-28 -60,-33 -63,0 -3,33 2,104 8,200 6,96 14,218 44,315 30,98 82,172 138,229 56,58 116,100 168,114 53,15 98,2 125,-9 27,-11 34,-22 11,-51 -23,-29 -76,-78 -127,-128 -51,-51 -99,-104 -130,-150 -31,-47 -45,-87 -54,-112 -9,-25 -11,-35 13,-4zm334 -142c34,32 69,64 94,101 25,37 41,81 51,124 10,44 14,88 18,132 47,-41 99,-92 145,-143 78,-86 139,-171 167,-208 29,-37 25,-25 15,4 -10,29 -26,76 -63,131 -36,54 -93,116 -152,175 -59,59 -121,115 -147,150 -27,34 -18,46 13,60 31,13 84,28 145,10 61,-17 131,-66 196,-133 65,-67 126,-154 161,-267 35,-114 44,-255 51,-367 7,-112 13,-195 9,-234 -3,-39 -15,-33 -73,0 -58,33 -162,94 -263,154 -102,60 -201,118 -279,198 -34,35 -64,74 -89,114zm1006 -600l412 0 0 216 -412 0 0 -216zm456 0l412 0 0 216 -412 0 0 -216zm446 0l412 0 0 216 -412 0 0 -216zm441 0l412 0 0 216 -412 0 0 -216zm449 0l412 0 0 216 -412 0 0 -216zm-1793 336l412 0 0 216 -412 0 0 -216zm456 0l412 0 0 216 -412 0 0 -216zm446 0l412 0 0 216 -412 0 0 -216zm-903 347l412 0 0 216 -412 0 0 -216zm456 0l412 0 0 216 -412 0 0 -216zm446 0l412 0 0 216 -412 0 0 -216zm441 0l412 0 0 216 -412 0 0 -216zm449 0l412 0 0 216 -412 0 0 -216zm-1793 335l412 0 0 216 -412 0 0 -216zm456 0l412 0 0 216 -412 0 0 -216zm446 0l412 0 0 216 -412 0 0 -216zm3162 302c34,32 69,64 94,101 25,37 41,81 51,124 10,44 14,88 18,132 47,-41 99,-92 145,-143 78,-86 139,-171 167,-208 29,-37 25,-25 15,4 -10,29 -27,76 -63,131 -36,54 -93,116 -152,175 -59,59 -121,115 -147,150 -26,34 -18,46 13,60 31,13 84,28 145,10 61,-17 131,-66 196,-133 65,-67 126,-153 161,-267 35,-114 44,-255 51,-367 7,-112 13,-195 9,-234 -3,-39 -15,-33 -73,0 -58,33 -162,94 -263,154 -102,60 -201,118 -279,198 -34,35 -64,74 -89,114zm-334 142c25,32 77,105 144,178 67,74 148,149 200,180 52,31 73,18 94,-26 21,-44 41,-118 26,-198 -15,-81 -64,-168 -131,-236 -67,-69 -153,-119 -240,-170 -87,-51 -176,-103 -226,-132 -50,-28 -60,-33 -63,0 -3,33 2,104 8,200 6,96 14,218 44,315 30,98 82,172 138,229 56,58 116,100 168,114 53,15 98,2 125,-9 27,-11 34,-22 11,-51 -23,-29 -76,-78 -127,-128 -51,-51 -99,-104 -130,-150 -31,-47 -45,-87 -54,-112 -9,-25 -11,-35 13,-4zm-145 1056l1152 0c18,0 32,15 32,32l0 21c0,18 -15,32 -32,32l-1152 0c-18,0 -32,-14 -32,-32l0 -21c0,-18 15,-32 32,-32zm414 -2775l325 0c18,0 32,15 32,32l0 21c0,18 -15,32 -32,32l-325 0c-18,0 -32,-15 -32,-32l0 -21c0,-18 15,-32 32,-32zm-548 -64l1421 0c130,0 236,106 236,236l0 2615c0,130 -106,236 -236,236l-1421 0c-130,0 -236,-106 -236,-236l0 -2615c0,-130 106,-236 236,-236zm-49 218l1518 0 0 2502 -1518 0 0 -2502z"/>
 </g>
</svg>
